<svg xmlns="http://www.w3.org/2000/svg" viewBox="0 0 31 31" fit="" height="100%" width="100%" preserveAspectRatio="xMidYMid meet" focusable="false"><g id="p2p_icon" data-name="p2p icon" transform="translate(-24.682 -669.854)"><path id="Path_58" data-name="Path 58" d="M23.87,1.674A5.464,5.464,0,0,1,29.326,7.13V23.808a5.464,5.464,0,0,1-5.456,5.456H7.13a5.464,5.464,0,0,1-5.456-5.456V7.13A5.464,5.464,0,0,1,7.13,1.674H23.87M23.87,0H7.13A7.171,7.171,0,0,0,0,7.13V23.808A7.184,7.184,0,0,0,7.13,31H23.808A7.184,7.184,0,0,0,31,23.87V7.13A7.171,7.171,0,0,0,23.87,0Z" transform="translate(24.682 669.854)" fill="#6a7787"></path><path id="Path_59" data-name="Path 59" d="M21.935,20.343a1.617,1.617,0,0,1,1.194.5,1.737,1.737,0,0,1,.5,1.194,1.617,1.617,0,0,1-.5,1.194,1.737,1.737,0,0,1-1.194.5,1.617,1.617,0,0,1-1.194-.5,1.737,1.737,0,0,1-.5-1.194,1.7,1.7,0,0,1,1.692-1.692m0-1.343a3.059,3.059,0,0,0-2.139.9,3.026,3.026,0,1,0,4.279,0,2.86,2.86,0,0,0-2.139-.9Z" transform="translate(18.1 663)" fill="#6a7787"></path><path id="Path_60" data-name="Path 60" d="M10.435,31.743a1.617,1.617,0,0,1,1.194.5,1.737,1.737,0,0,1,.5,1.194,1.617,1.617,0,0,1-.5,1.194,1.737,1.737,0,0,1-1.194.5,1.617,1.617,0,0,1-1.194-.5,1.737,1.737,0,0,1-.5-1.194,1.617,1.617,0,0,1,.5-1.194,1.836,1.836,0,0,1,1.194-.5m0-1.343a3.059,3.059,0,0,0-2.139.9,3,3,0,1,0,2.139-.9Z" transform="translate(22.281 659.848)" fill="#6a7787"></path><path id="Path_61" data-name="Path 61" d="M33.435,8.843a1.617,1.617,0,0,1,1.194.5,1.737,1.737,0,0,1,.5,1.194,1.617,1.617,0,0,1-.5,1.194,1.737,1.737,0,0,1-1.194.5,1.617,1.617,0,0,1-1.194-.5,1.737,1.737,0,0,1-.5-1.194,1.7,1.7,0,0,1,1.692-1.692m0-1.343a3.059,3.059,0,0,0-2.139.9,3.035,3.035,0,0,0,2.139,5.175,3.059,3.059,0,0,0,2.139-.9,3,3,0,0,0,0-4.279,3.059,3.059,0,0,0-2.139-.9Z" transform="translate(13.848 666.354)" fill="#6a7787"></path></g></svg>